<svg xmlns="http://www.w3.org/2000/svg" width="138" height="40" viewBox="0 0 138 40"><path fill="#FFF" d="M12.52 23.463H9.363v10.401l-.068.012-5.173-10.413H.965v16.303h3.157V29.375l.067-.012 5.174 10.402h3.156V23.463zm13.501 5.889c0-1.91-.542-3.409-1.629-4.494-1.086-1.087-2.528-1.63-4.327-1.63s-3.234.543-4.305 1.63c-1.072 1.085-1.607 2.584-1.607 4.494v4.547c0 1.919.537 3.414 1.612 4.489S18.276 40 20.075 40c1.8 0 3.239-.537 4.322-1.612 1.082-1.075 1.623-2.57 1.623-4.489v-4.547zm-3.146 4.546c0 1.209-.237 2.115-.711 2.721-.475.604-1.17.907-2.089.907-.918 0-1.61-.303-2.076-.907-.467-.605-.7-1.512-.7-2.721v-4.58c0-1.194.231-2.092.694-2.692s1.153-.902 2.071-.902c.91 0 1.607.303 2.088.908.481.604.723 1.5.723 2.687v4.579zm8.104-10.435h-3.146v16.303h3.146V23.463zm11.61 0H31.861v2.474h3.729v13.829h3.168V25.937h3.83v-2.474zm8.249 16.303h3.303l-4.624-16.303h-3.27l-4.624 16.303h3.291l.919-3.527h4.076l.929 3.527zm-3-11.187h.066l1.355 5.174h-2.776l1.355-5.174zm12.067 11.187c1.702 0 3.109-.634 4.221-1.898 1.113-1.265 1.67-2.898 1.67-4.898v-2.698c0-1.994-.557-3.626-1.67-4.899-1.111-1.272-2.519-1.908-4.221-1.908h-5.027v16.303h5.027zm0-13.829c.813 0 1.47.403 1.971 1.21.5.806.75 1.84.75 3.101v2.722c0 1.276-.25 2.317-.75 3.124-.501.806-1.157 1.209-1.971 1.209h-1.87V25.937h1.87zm15.461 13.829h3.303l-4.625-16.303h-3.269L66.15 39.766h3.293l.917-3.527h4.076l.93 3.527zm-3.001-11.187h.066l1.355 5.174H71.01l1.355-5.174zm6.337 7.654c0 1.109.219 2 .659 2.672.438.671 1.055 1.006 1.849 1.006.391 0 .736-.089 1.038-.268s.558-.44.767-.784l.146.906h1.17V28.896h-1.414v4.125a2.2 2.2 0 0 0-.731-.694 1.923 1.923 0 0 0-.962-.239c-.799 0-1.419.364-1.859 1.094-.441.729-.662 1.698-.662 2.905v.146zm1.407-.146c0-.859.119-1.557.358-2.094.239-.536.61-.805 1.111-.805.307 0 .571.092.795.275.223.184.403.431.543.742v3.65c-.14.307-.319.543-.54.711-.221.167-.489.25-.805.25-.502 0-.871-.232-1.107-.7-.237-.466-.355-1.095-.355-1.884v-.145zm9.652 3.559c.411-.176.742-.395.993-.654l-.46-.878a2.672 2.672 0 0 1-.809.54 2.65 2.65 0 0 1-1.03.185c-.571 0-.995-.239-1.272-.718-.276-.479-.415-1.103-.415-1.874h4.091v-.794c0-1.026-.225-1.845-.673-2.453-.448-.607-1.102-.912-1.961-.912-.854 0-1.547.354-2.076 1.063s-.794 1.614-.794 2.721v.327c0 1.101.266 1.994.797 2.683.532.688 1.268 1.03 2.206 1.03a3.535 3.535 0 0 0 1.403-.266zm-.6-5.942c.202.354.304.813.304 1.38v.16h-2.668c.06-.622.211-1.123.452-1.502s.566-.567.976-.567c.421 0 .734.176.936.529zm9.557 3.379c-.332.365-.831.548-1.494.548-.789 0-1.385-.22-1.79-.657-.405-.438-.608-1.156-.608-2.157h-3.011l-.021.066c-.037 1.723.481 3.005 1.555 3.849 1.073.842 2.364 1.264 3.876 1.264 1.532 0 2.763-.39 3.689-1.171.926-.782 1.39-1.854 1.39-3.219 0-1.321-.396-2.372-1.187-3.153-.793-.781-1.959-1.428-3.499-1.938-.904-.417-1.544-.8-1.916-1.15-.372-.35-.558-.795-.558-1.335 0-.585.164-1.071.492-1.462s.788-.586 1.38-.586c.686 0 1.213.214 1.582.641.368.427.553 1.053.553 1.878h2.999l.022-.066c.028-1.474-.427-2.649-1.368-3.524-.942-.876-2.187-1.314-3.733-1.314-1.46 0-2.661.41-3.603 1.232-.941.82-1.412 1.884-1.412 3.19 0 1.314.412 2.336 1.237 3.065.825.73 2.054 1.384 3.689 1.96.839.351 1.421.71 1.747 1.079.324.368.486.87.486 1.505.001.605-.165 1.09-.497 1.455zm12.988-6.766h-4.872v-4.073h5.813v-2.419h-8.901v15.94h8.923v-2.409h-5.835v-4.631h4.872v-2.408zm5.089-6.492h-3.569l3.974 7.904-4.062 8.036h3.591l2.332-5.759h.065l2.344 5.759h3.732l-4.226-8.036 3.963-7.904h-3.58l-2.266 5.638h-.065l-2.233-5.638zm20.24 5.759c0-1.868-.531-3.334-1.593-4.396-1.063-1.063-2.473-1.594-4.231-1.594-1.76 0-3.163.531-4.21 1.594-1.047 1.062-1.57 2.527-1.57 4.396v4.444c0 1.876.525 3.34 1.576 4.391s2.456 1.576 4.215 1.576 3.167-.525 4.227-1.576c1.058-1.051 1.587-2.515 1.587-4.391v-4.444zm-3.076 4.444c0 1.183-.231 2.069-.695 2.66-.464.592-1.144.888-2.042.888s-1.575-.296-2.031-.888c-.455-.591-.685-1.478-.685-2.66V29.55c0-1.168.227-2.045.68-2.634.452-.587 1.128-.881 2.025-.881.89 0 1.57.296 2.042.887.471.592.706 1.468.706 2.628v4.478z"/><path fill="#FFF" fill-rule="evenodd" d="M98.57 20.401s2.649-.185 5.372-1.423c2.878-1.308 4.819-2.654 4.819-2.654h1.019s-2.872 2.325-5.709 3.614c-2.768 1.258-5.501 1.481-5.501 1.481v-1.018z" clip-rule="evenodd" opacity=".5"/><path fill="#FFF" fill-rule="evenodd" d="M98.089 19.677s2.525-.822 4.867-2.684c2.475-1.968 4.031-3.743 4.031-3.743l.989-.248s-2.223 2.952-4.662 4.891c-2.38 1.892-4.979 2.773-4.979 2.773l-.246-.989z" clip-rule="evenodd" opacity=".5"/><path fill="#A2095C" fill-rule="evenodd" d="M81.457 26.335c-.969-2.388 1.337-5.727 5.147-7.459 3.811-1.732 7.686-1.201 8.654 1.187s-1.337 5.729-5.147 7.46c-3.811 1.731-7.685 1.2-8.654-1.188z" clip-rule="evenodd"/><path fill="#EE3197" fill-rule="evenodd" d="M85.262 26.074c-.651-1.517.793-3.594 3.228-4.639 2.436-1.045 4.938-.662 5.592.854.652 1.517-.792 3.594-3.228 4.639-2.436 1.047-4.939.663-5.592-.854z" clip-rule="evenodd" opacity=".7"/><path fill="#BD0769" fill-rule="evenodd" d="M98.243 2.806c3.423.706 5.238 5.906 4.056 11.616-1.182 5.711-4.914 9.769-8.336 9.064-3.423-.704-5.238-5.905-4.056-11.616 1.182-5.711 4.914-9.769 8.336-9.064z" clip-rule="evenodd"/><path fill="#EE3197" fill-rule="evenodd" d="M84.941.398c3.788-1.664 9.021 2.046 11.688 8.287 2.668 6.241 1.759 12.648-2.029 14.313-3.787 1.664-9.021-2.046-11.688-8.287C80.245 8.47 81.153 2.062 84.941.398z" clip-rule="evenodd"/><path fill="#A2095C" fill-rule="evenodd" d="M94.6 22.997a4.62 4.62 0 0 1-1.184.327c-3.063-1.121-4.627-6.057-3.509-11.455.684-3.303 2.224-6.046 4.061-7.642a18.929 18.929 0 0 1 2.661 4.457c2.668 6.241 1.759 12.649-2.029 14.313z" clip-rule="evenodd" opacity=".8"/></svg>